<?xml version="1.0" standalone="no"?><!DOCTYPE svg PUBLIC "-//W3C//DTD SVG 1.1//EN" "http://www.w3.org/Graphics/SVG/1.1/DTD/svg11.dtd"><svg t="1610011227038" class="icon" viewBox="0 0 1024 1024" version="1.1" xmlns="http://www.w3.org/2000/svg" p-id="10725" width="32" height="32" xmlns:xlink="http://www.w3.org/1999/xlink"><defs><style type="text/css"></style></defs><path d="M512 185.6c-180.2624 0-326.4 146.1376-326.4 326.4S331.7376 838.4 512 838.4 838.4 692.2624 838.4 512 692.2624 185.6 512 185.6z m0 38.4c159.0528 0 288 128.9472 288 288S671.0528 800 512 800 224 671.0528 224 512 352.9472 224 512 224z" fill="#6F6D6D" p-id="10726"></path><path d="M531.968 583.68v-5.7344c0-9.8304 2.048-18.8416 6.144-27.0336a58.176 58.176 0 0 1 16.384-20.0704c19.6608-17.2032 31.5392-28.2624 35.2256-32.3584 9.8304-13.1072 15.1552-29.9008 15.1552-50.3808 0-24.9856-8.192-44.6464-24.576-58.9824-16.384-14.7456-38.0928-21.7088-64.7168-21.7088-30.3104 0-54.0672 8.6016-71.68 25.8048-18.0224 17.2032-26.624 40.96-26.624 71.2704h46.6944c0-17.6128 3.2768-31.1296 10.24-40.5504 8.192-11.0592 20.8896-16.384 38.5024-16.384 13.9264 0 24.9856 3.6864 32.768 11.4688 7.3728 7.7824 11.4688 18.432 11.4688 31.9488 0 10.24-3.6864 20.0704-11.0592 29.0816l-4.9152 5.7344c-26.624 23.7568-42.5984 40.96-47.9232 52.0192-5.7344 11.0592-8.192 24.576-8.192 40.1408v5.7344h47.104zM508.2112 665.6c9.0112 0 16.384-2.8672 22.9376-8.6016 5.7344-5.7344 9.0112-13.5168 9.0112-22.528s-3.2768-16.384-9.0112-22.1184c-6.144-5.7344-13.9264-8.6016-22.9376-8.6016s-16.384 2.8672-22.1184 8.6016c-6.5536 5.7344-9.4208 13.1072-9.4208 22.1184s2.8672 16.384 9.4208 22.1184a30.2464 30.2464 0 0 0 22.1184 9.0112z" fill="#69C0FF" p-id="10727"></path></svg>