<?xml version="1.0" standalone="no"?><!DOCTYPE svg PUBLIC "-//W3C//DTD SVG 1.1//EN" "http://www.w3.org/Graphics/SVG/1.1/DTD/svg11.dtd"><svg t="1610009982749" class="icon" viewBox="0 0 1024 1024" version="1.1" xmlns="http://www.w3.org/2000/svg" p-id="1760" width="32" height="32" xmlns:xlink="http://www.w3.org/1999/xlink"><defs><style type="text/css"></style></defs><path d="M512 204.8c168.96 0 307.2 138.24 307.2 307.2s-138.24 307.2-307.2 307.2-307.2-138.24-307.2-307.2 138.24-307.2 307.2-307.2m0-51.2c-197.12 0-358.4 161.28-358.4 358.4s161.28 358.4 358.4 358.4 358.4-161.28 358.4-358.4-161.28-358.4-358.4-358.4z" p-id="1761" fill="#2c2c2c"></path><path d="M550.4 368.64m-38.4 0a38.4 38.4 0 1 0 76.8 0 38.4 38.4 0 1 0-76.8 0Z" p-id="1762" fill="#2c2c2c"></path><path d="M486.4 716.8c-7.68 0-15.36-2.56-20.48-7.68-5.12-5.12-7.68-15.36-5.12-23.04l38.4-179.2c-10.24 7.68-23.04 5.12-30.72-2.56-10.24-10.24-12.8-25.6-2.56-35.84 30.72-33.28 66.56-35.84 71.68-33.28 7.68 0 15.36 5.12 20.48 10.24 5.12 5.12 7.68 12.8 5.12 20.48l-38.4 179.2c7.68-5.12 20.48-5.12 28.16 0 12.8 7.68 15.36 23.04 7.68 35.84-25.6 30.72-66.56 35.84-74.24 35.84z" p-id="1763" fill="#2c2c2c"></path></svg>